<svg width="200" height="199" viewBox="0 0 200 199" fill="none" xmlns="http://www.w3.org/2000/svg">
<path opacity="0.4" d="M17.4448 110.405L99.3334 62.7822L182.864 112.047L99.3334 159.997L17.4448 110.405Z" fill="#D9D9D9" stroke="black" stroke-width="0.218953"/>
<path d="M65.7222 132.3L98.3462 151.239L130.642 132.3L98.3462 115.002L65.7222 132.3Z" fill="#D9D9D9" stroke="black" stroke-width="0.218953"/>
<path d="M102.84 110.514L135.464 129.454L167.76 110.514L135.464 93.2168L102.84 110.514Z" fill="#D9D9D9" stroke="black" stroke-width="0.218953"/>
<path d="M65.8311 87.9628L98.4551 106.902L130.751 87.9628L98.4551 70.6655L65.8311 87.9628Z" fill="#D9D9D9" stroke="black" stroke-width="0.218953"/>
<path d="M28.3926 110.514L61.0166 129.454L93.3122 110.514L61.0166 93.2168L28.3926 110.514Z" fill="#D9D9D9" stroke="black" stroke-width="0.218953"/>
<path d="M130.644 88.7281L99.8807 106.901L66.9282 88.7281V52.7102L99.8807 39.792L130.644 55.0092V88.7281Z" fill="#D9D9D9"/>
<path d="M99.8807 106.901L130.644 88.7281V55.0092M99.8807 106.901L66.9282 88.7281V52.7102M99.8807 106.901V70.8834M99.8807 70.8834L66.9282 52.7102M99.8807 70.8834L130.644 55.0092M66.9282 52.7102L99.8807 39.792L130.644 55.0092" stroke="black" stroke-width="0.218953"/>
<path d="M93.4234 111.718L62.6605 129.891L29.708 111.718V75.7005L62.6605 62.7822L93.4234 77.9995V111.718Z" fill="#D9D9D9"/>
<path d="M62.6605 129.891L93.4234 111.718V77.9995M62.6605 129.891L29.708 111.718V75.7005M62.6605 129.891V93.8736M62.6605 93.8736L29.708 75.7005M62.6605 93.8736L93.4234 77.9995M29.708 75.7005L62.6605 62.7822L93.4234 77.9995" stroke="black" stroke-width="0.218953"/>
<path d="M166.556 111.718L135.793 129.891L102.84 111.718V75.7005L135.793 62.7822L166.556 77.9995V111.718Z" fill="#D9D9D9"/>
<path d="M135.793 129.891L166.556 111.718V77.9995M135.793 129.891L102.84 111.718V75.7005M135.793 129.891V93.8736M135.793 93.8736L102.84 75.7005M135.793 93.8736L166.556 77.9995M102.84 75.7005L135.793 62.7822L166.556 77.9995" stroke="black" stroke-width="0.218953"/>
<path d="M129.769 132.408L99.0062 150.581L66.0537 132.408V96.3897L99.0062 83.4714L129.769 98.6887V132.408Z" fill="#D9D9D9"/>
<path d="M99.0062 150.581L129.769 132.408V98.6887M99.0062 150.581L66.0537 132.408V96.3897M99.0062 150.581V114.563M99.0062 114.563L66.0537 96.3897M99.0062 114.563L129.769 98.6887M66.0537 96.3897L99.0062 83.4714L129.769 98.6887" stroke="black" stroke-width="0.218953"/>
</svg>
